# xmcd
#
# Track frame offsets: 
#        150
#        11110
#        29810
#        47822
#        66180
#        85817
#        94787
#        114765
#        131957
#        146342
#        162760
#
# Disc length: 2408 seconds
#
# Revision: 13
# Processed by: cddbd v1.5.2PL0 Copyright (c) Steve Scherf et al.
# Submitted via: ExactAudioCopyFreeDBPlugin 1.0
#
DISCID=9309660b
DTITLE=Enya - Watermark
DYEAR=1988
DGENRE=Celtic
TTITLE0=Watermark
TTITLE1=Cursum Perficio
TTITLE2=On Your Shore
TTITLE3=Storms In Africa
TTITLE4=Exile
TTITLE5=Miss Clare Remembers
TTITLE6=Orinoco Flow
TTITLE7=Evening Falls ...
TTITLE8=River
TTITLE9=The Longships
TTITLE10=Na Laetha Geal M'oige
EXTD=YEAR: 1988
EXTT0=
EXTT1=
EXTT2=
EXTT3=
EXTT4=
EXTT5=
EXTT6=
EXTT7=
EXTT8=
EXTT9=
EXTT10=
PLAYORDER=
